<?xml version="1.0" encoding="utf-8" ?>
<svg baseProfile="full" height="768px" version="1.1" width="1366px" xmlns="http://www.w3.org/2000/svg" xmlns:ev="http://www.w3.org/2001/xml-events" xmlns:xlink="http://www.w3.org/1999/xlink"><defs /><path d="M 396,56 395,57 395,58 393,60 393,61 392,62 392,63 391,64 391,65 390,66 390,67 389,68 389,69 387,71 387,72 386,73 386,74 385,75 385,76 384,77 384,78 382,80 382,81 381,82 381,83 380,84 380,85 379,86 379,87 377,89 377,90 376,91 376,92 374,94 374,95 373,96 373,97 372,98 372,99 370,101 370,102 369,103 369,104 368,105 368,106 367,107 367,108 365,110 365,111 364,112 364,113 363,114 363,115 361,117 361,118 360,119 360,120 359,121 359,122 358,123 358,124 356,126 356,127 355,128 355,129 354,130 354,131 352,133 352,135 350,137 350,138 349,139 349,140 348,141 348,142 346,144 346,145 345,146 345,147 344,148 344,149 342,151 342,152 341,153 341,154 340,155 340,156 338,158 338,159 336,161 336,163 334,165 334,166 333,167 333,168 332,169 332,170 331,171 331,172 329,174 329,175 328,176 328,177 327,178 327,179 325,181 325,182 324,183 324,184 323,185 323,186 322,187 322,188 320,190 320,191 319,192 319,193 318,194 318,195 317,196 317,197 315,199 315,200 314,201 314,202 313,203 313,204 312,205 312,206 310,208 310,209 309,210 309,211 308,212 308,213 306,215 306,216 305,217 305,218 304,219 304,220 303,221 303,222 301,224 301,225 300,226 300,227 298,229 298,230 297,231 297,232 296,233 296,234 295,235 295,236 294,237 294,238 292,240 292,241 291,242 291,243 289,245 289,246 288,247 288,248 287,249 287,250 286,251 286,252 285,253 285,254 283,256 283,257 282,258 282,259 281,260 281,261 279,263 279,264 278,265 278,266 277,267 277,268 276,269 276,270 274,272 274,273 273,274 273,275 272,276 272,277 270,279 270,280 269,281 269,282 268,283 268,284 266,286 266,287 265,288 265,289 264,290 264,291 262,293 262,294 261,295 261,296 260,297 260,298 259,299 259,300 258,301 258,302 256,304 256,305 255,306 255,307 254,308 254,309 252,311 252,312 251,313 251,314 250,315 250,316 248,318 248,319 247,320 247,321 246,322 246,323 245,324 245,325 243,327 243,328 242,329 242,330 241,331 241,332 240,333 240,334 238,336 238,337 237,338 237,339 236,340 236,341 235,342 235,343 233,345 233,346 232,347 232,348 230,350 230,351 229,352 229,353 228,354 228,355 227,356 227,357 225,359 225,360 224,361 224,362 223,363 223,364 222,365 222,366 220,368 220,369 219,370 219,371 218,372 218,373 216,375 216,376 215,377 215,378 214,379 214,380 212,382 212,385 214,387 214,389 216,391 216,392 217,393 217,394 218,395 218,396 220,398 220,399 221,400 221,401 222,402 222,403 224,405 224,407 226,409 226,410 227,411 227,412 228,413 228,414 230,416 230,417 231,418 231,419 232,420 232,421 234,423 234,424 235,425 235,426 236,427 236,428 238,430 238,431 240,433 240,435 242,437 242,438 243,439 243,440 244,441 244,442 246,444 246,446 248,448 248,449 250,451 250,452 251,453 251,454 252,455 252,456 253,457 253,458 254,459 254,460 256,462 256,463 257,464 257,465 258,466 258,467 259,468 259,469 261,471 261,472 262,473 262,474 263,475 263,476 264,477 264,478 266,480 266,481 267,482 267,483 269,485 269,486 270,487 270,488 271,489 271,490 272,491 272,492 273,493 273,494 275,496 275,497 276,498 276,499 278,501 278,502 279,503 279,504 280,505 280,506 281,507 281,508 282,509 282,510 284,512 284,513 285,514 285,515 287,517 287,518 288,519 288,520 289,521 289,522 290,523 290,524 291,525 291,526 293,528 293,529 294,530 294,531 296,533 296,534 297,535 297,536 298,537 298,538 299,539 299,540 301,542 301,543 302,544 302,545 303,546 303,547 304,548 304,549 306,551 306,552 307,553 307,554 308,555 308,556 309,557 309,558 311,560 311,561 312,562 312,563 314,565 314,567 316,569 316,570 317,571 317,572 318,573 318,574 320,576 320,577 321,578 321,579 322,580 322,581 324,583 324,584 325,585 325,586 326,587 326,588 327,589 327,590 329,592 329,593 330,594 330,595 331,596 331,597 333,599 333,600 334,601 334,602 335,603 335,604 336,605 336,606 338,608 338,609 339,610 339,611 340,612 340,613 342,615 342,616 343,617 343,618 344,619 344,620 345,621 345,622 347,624 347,625 348,626 348,627 349,628 349,629 350,630 350,631 352,633 352,634 353,635 353,636 354,637 354,638 356,640 356,641 357,642 357,643 358,644 358,645 360,647 360,648 361,649 361,650 362,651 362,652 363,653 363,654 365,656 365,657 366,658 366,659 367,660 367,661 368,662 368,663 370,665 370,666 371,667 371,668 372,669 372,670 374,672 374,673 375,674 375,675 376,676 376,677 378,679 378,680 379,681 379,682 380,683 380,684 381,685 381,686 384,689 384,691 385,692 385,693 386,694 386,695 388,697 388,698 389,699 389,700 390,701 390,702 392,704 392,705 393,706 393,707 394,708 394,709 396,711 559,711 562,708 562,707 563,706 563,705 565,703 565,702 567,700 567,699 568,698 568,697 570,695 570,694 571,693 571,692 573,690 573,689 575,687 575,686 577,684 577,683 578,682 578,681 580,679 580,678 581,677 581,676 583,674 583,673 585,671 585,670 587,668 587,667 588,666 588,665 590,663 590,662 591,661 591,660 593,658 593,657 595,655 595,654 597,652 597,651 598,650 598,649 599,648 599,647 601,645 601,644 603,642 603,641 605,639 605,638 607,636 607,635 608,634 608,633 610,631 610,630 611,629 611,628 613,626 613,625 615,623 615,622 617,620 617,619 618,618 618,617 620,615 620,614 621,613 621,612 623,610 623,609 625,607 625,606 627,604 627,603 628,602 628,601 630,599 630,598 631,597 631,596 633,594 633,593 635,591 635,590 636,589 636,588 638,586 638,585 640,583 640,582 642,580 642,579 643,578 643,577 645,575 645,574 647,572 647,571 648,570 648,569 650,567 650,566 651,565 651,564 653,562 653,561 655,559 655,558 656,557 656,556 658,554 658,553 660,551 660,550 661,549 661,548 663,546 663,545 665,543 665,542 667,540 667,539 668,538 668,537 670,535 670,534 671,533 671,532 673,530 673,529 675,527 675,526 677,524 677,523 678,522 678,521 679,520 679,519 681,517 681,516 683,514 683,513 685,511 685,510 687,508 687,507 688,506 688,505 690,503 690,502 691,501 691,500 693,498 693,497 695,495 695,494 696,493 696,492 698,490 698,489 700,487 700,486 701,485 701,484 703,482 703,481 705,479 705,478 706,477 706,476 708,474 708,473 710,471 710,470 711,469 711,468 713,466 713,465 715,463 715,462 716,461 716,460 718,458 718,457 719,456 719,455 722,452 722,451 723,450 723,449 725,447 725,446 727,444 727,443 728,442 728,441 730,439 730,438 731,437 731,436 733,434 733,433 735,431 735,430 736,429 736,428 738,426 738,425 739,424 739,423 741,421 741,420 743,418 743,417 745,415 745,414 746,413 746,412 748,410 748,409 750,407 750,406 751,405 751,404 753,402 753,401 755,399 755,398 756,397 756,396 758,394 758,393 759,392 759,391 761,389 761,388 763,386 763,385 764,384 764,383 766,381 766,380 768,378 768,377 770,375 770,374 771,373 771,372 773,370 773,369 775,367 775,366 776,365 776,364 778,362 778,361 779,360 779,359 781,357 781,356 783,354 783,353 785,351 785,350 786,349 786,348 788,346 788,345 790,343 790,342 791,341 791,340 793,338 793,337 795,335 795,334 796,333 796,332 798,330 798,329 799,328 799,327 801,325 801,324 803,322 803,321 805,319 805,318 807,316 807,315 808,314 808,313 809,312 809,311 811,309 811,308 813,306 813,305 815,303 815,302 816,301 816,300 818,298 818,297 819,296 819,295 821,293 821,292 823,290 823,289 824,288 824,287 826,285 826,284 828,282 828,281 830,279 830,278 831,277 831,276 833,274 833,273 835,271 835,270 836,269 836,268 838,266 838,265 839,264 839,263 841,261 841,260 843,258 843,257 844,256 844,255 846,253 846,252 848,250 848,249 849,248 849,247 851,245 851,244 853,242 853,241 855,239 855,238 856,237 856,236 858,234 858,233 859,232 859,231 861,229 861,228 863,226 863,225 864,224 864,223 866,221 866,220 868,218 868,217 870,215 870,214 871,213 871,212 873,210 873,209 874,208 874,207 876,205 876,204 878,202 878,201 879,200 879,199 881,197 881,196 883,194 885,196 885,197 886,198 886,199 888,201 888,202 889,203 889,204 890,205 890,206 891,207 891,208 892,209 892,210 894,212 894,213 895,214 895,215 896,216 896,217 898,219 898,220 899,221 899,222 901,224 901,225 902,226 902,227 903,228 903,229 904,230 904,231 906,233 906,235 908,237 908,238 909,239 909,240 910,241 910,242 912,244 912,245 913,246 913,247 914,248 914,249 915,250 915,251 917,253 917,254 918,255 918,256 919,257 919,258 921,260 921,261 922,262 922,263 923,264 923,265 924,266 924,267 926,269 926,270 928,272 928,274 930,276 930,277 931,278 931,279 932,280 932,281 934,283 934,284 935,285 935,286 936,287 936,288 937,289 937,290 939,292 939,293 940,294 940,295 941,296 941,297 943,299 943,300 944,301 944,302 945,303 945,304 946,305 946,306 948,308 948,309 949,310 949,311 950,312 950,313 951,314 951,315 953,317 953,318 954,319 954,320 955,321 955,322 957,324 957,325 958,326 958,327 959,328 959,329 960,330 960,331 962,333 962,334 963,335 963,336 964,337 964,338 966,340 966,341 967,342 967,343 968,344 968,345 970,347 970,348 971,349 971,350 972,351 972,352 973,353 973,354 974,355 974,356 976,358 976,359 977,360 977,361 978,362 978,363 980,365 980,366 981,367 981,368 982,369 982,370 984,372 984,373 985,374 985,375 986,376 986,377 987,378 987,379 989,381 989,382 990,383 990,384 989,385 989,386 988,387 988,388 987,389 987,390 986,391 986,392 984,394 984,395 983,396 983,397 982,398 982,399 980,401 980,402 979,403 979,404 978,405 978,406 976,408 976,410 974,412 974,413 973,414 973,415 971,417 971,418 970,419 970,420 969,421 969,422 968,423 968,424 966,426 966,427 965,428 965,429 964,430 964,431 962,433 962,434 961,435 961,436 960,437 960,438 958,440 958,441 957,442 957,443 956,444 956,445 955,446 955,447 953,449 953,450 952,451 952,452 951,453 951,454 950,455 950,456 948,458 948,459 947,460 947,461 946,462 946,463 944,465 944,466 943,467 943,468 942,469 942,470 941,471 941,472 939,474 939,475 938,476 938,477 937,478 937,479 935,481 935,482 934,483 934,484 933,485 933,486 932,487 932,488 930,490 930,491 929,492 929,493 928,494 928,495 926,497 926,498 925,499 925,500 924,501 924,502 922,504 922,505 921,506 921,507 920,508 920,509 919,510 919,511 917,513 917,514 916,515 916,516 915,517 915,518 914,519 914,520 912,522 912,523 911,524 911,525 910,526 910,527 909,528 909,529 907,531 907,532 906,533 906,534 904,536 904,537 903,538 903,539 902,540 902,541 901,542 901,543 899,545 899,546 898,547 898,548 896,550 896,552 895,553 895,554 893,556 893,557 892,558 892,559 890,561 890,562 889,563 889,564 888,565 888,566 886,568 886,569 885,570 885,571 884,572 884,573 883,574 883,575 881,577 881,578 880,579 880,580 879,581 879,582 878,583 878,584 876,586 876,587 875,588 875,589 874,590 874,591 872,593 872,594 871,595 871,596 870,597 870,598 869,599 869,600 867,602 867,603 866,604 866,605 865,606 865,607 864,608 864,609 862,611 862,612 861,613 861,614 860,615 860,616 858,618 858,619 857,620 857,621 856,622 856,623 854,625 854,627 852,629 852,630 851,631 851,632 850,633 850,634 848,636 848,638 845,641 845,642 844,643 844,644 843,645 843,646 842,647 842,648 840,650 840,651 839,652 839,653 838,654 838,655 836,657 836,658 835,659 835,660 834,661 834,662 832,664 832,666 830,668 830,669 829,670 829,671 828,672 828,673 826,675 826,676 825,677 825,678 824,679 824,680 822,682 822,683 821,684 821,685 820,686 820,687 819,688 819,689 817,691 817,692 816,693 816,694 815,695 815,696 813,698 813,699 812,700 812,701 811,702 811,703 809,705 809,706 808,707 808,708 807,709 807,711 969,711 971,709 971,708 972,707 972,706 973,705 973,704 975,702 975,701 976,700 976,699 977,698 977,697 978,696 978,695 980,693 980,692 981,691 981,690 982,689 982,688 983,687 983,686 985,684 985,683 986,682 986,681 987,680 987,679 989,677 989,676 990,675 990,674 991,673 991,672 993,670 993,669 994,668 994,667 995,666 995,665 996,664 996,663 997,662 997,661 999,659 999,658 1000,657 1000,656 1001,655 1001,654 1002,653 1002,652 1004,650 1004,649 1005,648 1005,647 1006,646 1006,645 1008,643 1008,642 1009,641 1009,640 1010,639 1010,638 1012,636 1012,635 1013,634 1013,633 1014,632 1014,631 1015,630 1015,629 1017,627 1017,626 1018,625 1018,624 1019,623 1019,622 1020,621 1020,620 1022,618 1022,617 1023,616 1023,615 1024,614 1024,613 1026,611 1026,610 1027,609 1027,608 1029,606 1029,604 1031,602 1031,601 1032,600 1032,599 1033,598 1033,597 1035,595 1035,594 1036,593 1036,592 1038,590 1038,589 1039,588 1039,587 1040,586 1040,585 1041,584 1041,583 1042,582 1042,581 1044,579 1044,578 1045,577 1045,576 1047,574 1047,573 1048,572 1048,571 1049,570 1049,569 1050,568 1050,567 1051,566 1051,565 1053,563 1053,562 1054,561 1054,560 1055,559 1055,558 1057,556 1057,555 1058,554 1058,553 1059,552 1059,551 1060,550 1060,549 1061,548 1061,547 1063,545 1063,544 1065,542 1065,540 1067,538 1067,537 1068,536 1068,535 1069,534 1069,533 1071,531 1071,529 1073,527 1073,526 1075,524 1075,523 1076,522 1076,521 1077,520 1077,519 1079,517 1079,515 1081,513 1081,512 1082,511 1082,510 1084,508 1084,507 1085,506 1085,505 1086,504 1086,503 1087,502 1087,501 1089,499 1089,498 1090,497 1090,496 1091,495 1091,494 1093,492 1093,491 1094,490 1094,489 1095,488 1095,487 1097,485 1097,483 1099,481 1099,480 1100,479 1100,478 1102,476 1102,475 1103,474 1103,473 1104,472 1104,471 1105,470 1105,469 1107,467 1107,466 1108,465 1108,464 1109,463 1109,462 1111,460 1111,459 1112,458 1112,457 1113,456 1113,455 1114,454 1114,453 1116,451 1116,450 1117,449 1117,448 1119,446 1119,445 1120,444 1120,443 1121,442 1121,441 1122,440 1122,439 1123,438 1123,437 1125,435 1125,434 1126,433 1126,432 1127,431 1127,430 1129,428 1129,427 1130,426 1130,425 1131,424 1131,423 1132,422 1132,421 1134,419 1134,418 1135,417 1135,416 1137,414 1137,412 1139,410 1139,409 1140,408 1140,407 1141,406 1141,405 1143,403 1143,402 1144,401 1144,400 1145,399 1145,398 1146,397 1146,396 1148,394 1148,393 1149,392 1149,391 1150,390 1150,389 1152,387 1152,386 1153,385 1153,383 1152,382 1152,381 1151,380 1151,379 1150,378 1150,377 1148,375 1148,374 1147,373 1147,372 1146,371 1146,370 1145,369 1145,368 1143,366 1143,365 1142,364 1142,363 1141,362 1141,361 1140,360 1140,359 1138,357 1138,356 1137,355 1137,354 1136,353 1136,352 1135,351 1135,350 1133,348 1133,347 1132,346 1132,345 1131,344 1131,343 1129,341 1129,340 1128,339 1128,338 1127,337 1127,336 1125,334 1125,333 1124,332 1124,331 1123,330 1123,329 1121,327 1121,326 1120,325 1120,324 1119,323 1119,322 1118,321 1118,320 1116,318 1116,317 1115,316 1115,315 1114,314 1114,313 1112,311 1112,310 1111,309 1111,308 1110,307 1110,306 1109,305 1109,304 1107,302 1107,301 1106,300 1106,299 1104,297 1104,296 1103,295 1103,294 1102,293 1102,292 1101,291 1101,290 1100,289 1100,288 1099,287 1099,286 1097,284 1097,283 1096,282 1096,281 1095,280 1095,279 1093,277 1093,276 1092,275 1092,274 1091,273 1091,272 1089,270 1089,269 1088,268 1088,267 1087,266 1087,265 1085,263 1085,262 1084,261 1084,260 1083,259 1083,258 1082,257 1082,256 1081,255 1081,254 1079,252 1079,251 1078,250 1078,249 1076,247 1076,246 1075,245 1075,244 1074,243 1074,242 1073,241 1073,240 1071,238 1071,237 1070,236 1070,235 1069,234 1069,233 1067,231 1067,230 1066,229 1066,228 1065,227 1065,226 1064,225 1064,224 1063,223 1063,222 1061,220 1061,219 1060,218 1060,217 1058,215 1058,214 1057,213 1057,212 1056,211 1056,210 1055,209 1055,208 1053,206 1053,205 1052,204 1052,203 1051,202 1051,201 1050,200 1050,199 1048,197 1048,196 1047,195 1047,194 1046,193 1046,192 1045,191 1045,190 1043,188 1043,187 1042,186 1042,185 1041,184 1041,183 1039,181 1039,180 1038,179 1038,178 1037,177 1037,176 1035,174 1035,173 1034,172 1034,171 1033,170 1033,169 1031,167 1031,166 1030,165 1030,164 1029,163 1029,162 1028,161 1028,160 1026,158 1026,157 1025,156 1025,155 1024,154 1024,153 1023,152 1023,151 1021,149 1021,148 1020,147 1020,146 1019,145 1019,144 1017,142 1017,141 1016,140 1016,139 1015,138 1015,137 1013,135 1013,134 1012,133 1012,132 1011,131 1011,130 1010,129 1010,128 1008,126 1008,125 1007,124 1007,123 1006,122 1006,121 1004,119 1004,118 1003,117 1003,116 1002,115 1002,114 1001,113 1001,112 999,110 999,109 998,108 998,107 997,106 997,105 996,104 996,103 994,101 994,100 993,99 993,98 992,97 992,96 991,95 991,94 989,92 989,91 988,90 988,89 987,88 987,87 985,85 985,84 984,83 984,82 983,81 983,80 981,78 981,77 980,76 980,75 979,74 979,73 978,72 978,71 977,70 977,69 975,67 975,66 974,65 974,64 973,63 973,62 971,60 971,59 970,58 970,57 969,56 806,56 804,58 804,59 802,61 802,62 800,64 800,65 799,66 799,67 798,68 798,69 796,71 796,72 794,74 794,75 792,77 792,78 791,79 791,80 789,82 789,83 787,85 787,86 785,88 785,89 784,90 784,91 783,92 783,93 780,96 780,97 779,98 779,99 777,101 777,102 776,103 776,104 774,106 774,107 772,109 772,110 771,111 771,112 769,114 769,115 767,117 767,118 766,119 766,120 764,122 764,123 762,125 762,126 760,128 760,129 759,130 759,131 757,133 757,134 756,135 756,136 754,138 754,139 752,141 752,143 749,146 749,147 748,148 748,149 746,151 746,152 744,154 744,155 742,157 742,158 741,159 741,160 739,162 739,163 737,165 737,166 736,167 736,168 734,170 734,171 732,173 732,174 731,175 731,176 729,178 729,179 727,181 727,182 726,183 726,184 724,186 724,187 722,189 722,190 720,192 720,193 719,194 719,195 718,196 718,197 716,199 716,200 714,202 714,203 712,205 712,206 711,207 711,208 709,210 709,211 707,213 707,214 705,216 705,217 704,218 704,219 703,220 703,221 701,223 701,224 699,226 699,227 697,229 697,230 696,231 696,232 694,234 694,235 692,237 692,238 691,239 691,240 689,242 689,243 687,245 687,246 686,247 686,248 684,250 684,251 682,253 682,254 680,256 680,257 679,258 679,259 677,261 677,262 676,263 676,264 674,266 674,267 672,269 672,271 669,274 669,275 668,276 668,277 666,279 666,280 664,282 664,283 662,285 662,286 661,287 661,288 659,290 659,291 657,293 657,294 656,295 656,296 654,298 654,299 652,301 652,302 651,303 651,304 649,306 649,307 648,308 648,309 646,311 646,312 644,314 644,315 642,317 642,318 640,320 640,321 639,322 639,323 638,324 638,325 636,327 636,328 634,330 634,331 632,333 632,334 631,335 631,336 629,338 629,339 627,341 627,342 626,343 626,344 624,346 624,347 623,348 623,349 621,351 621,352 619,354 619,355 617,357 617,358 616,359 616,360 614,362 614,363 612,365 612,366 611,367 611,368 609,370 609,371 607,373 607,374 606,375 606,376 604,378 604,379 602,381 602,382 600,384 600,385 599,386 599,387 597,389 597,390 596,391 596,392 594,394 594,395 592,397 592,399 589,402 589,403 587,405 587,406 586,407 586,408 584,410 584,411 582,413 582,414 581,415 581,416 580,417 580,418 577,421 577,422 576,423 576,424 574,426 574,427 572,429 572,430 571,431 571,432 569,434 569,435 568,436 568,437 566,439 566,440 564,442 564,443 563,444 563,445 560,448 560,449 559,450 559,451 558,452 558,453 556,455 556,456 554,458 554,459 552,461 552,462 551,463 551,464 549,466 549,467 547,469 547,470 546,471 546,472 544,474 544,475 543,476 543,477 541,479 541,480 539,482 539,483 537,485 537,486 536,487 536,488 534,490 534,491 532,493 532,494 531,495 531,496 529,498 529,499 528,500 528,501 526,503 526,504 524,506 524,507 522,509 522,510 520,512 520,513 519,514 519,515 517,517 517,518 516,519 516,520 514,522 514,523 512,525 512,527 509,530 509,531 508,532 508,533 506,535 506,536 504,538 504,539 502,541 502,542 501,543 501,544 499,546 499,547 497,549 497,550 496,551 496,552 494,554 494,555 492,557 492,558 491,559 491,560 489,562 489,563 488,564 488,565 486,567 486,568 484,570 484,571 482,573 479,570 479,568 477,566 477,565 476,564 476,563 475,562 475,561 473,559 473,558 472,557 472,556 471,555 471,554 469,552 469,551 468,550 468,549 467,548 467,547 466,546 466,545 463,542 463,540 461,538 461,537 460,536 460,535 459,534 459,533 457,531 457,529 455,527 455,526 454,525 454,524 453,523 453,522 451,520 451,519 450,518 450,517 449,516 449,515 448,514 448,513 446,511 446,510 445,509 445,508 444,507 444,506 442,504 442,503 441,502 441,501 440,500 440,499 439,498 439,497 437,495 437,494 436,493 436,492 434,490 434,489 433,488 433,487 432,486 432,485 431,484 431,483 430,482 430,481 428,479 428,478 427,477 427,476 425,474 425,473 424,472 424,471 423,470 423,469 422,468 422,467 421,466 421,465 419,463 419,462 418,461 418,460 416,458 416,457 415,456 415,455 414,454 414,453 413,452 413,451 412,450 412,449 410,447 410,446 409,445 409,444 407,442 407,441 406,440 406,439 405,438 405,437 404,436 404,435 402,433 402,432 401,431 401,430 400,429 400,428 399,427 399,426 397,424 397,423 396,422 396,421 395,420 395,419 394,418 394,417 392,415 392,414 391,413 391,412 389,410 389,408 387,406 387,405 386,404 386,403 385,402 385,401 383,399 383,398 382,397 382,396 381,395 381,394 379,392 379,391 378,390 378,389 377,388 377,387 376,386 376,385 375,384 375,383 376,382 376,381 377,380 377,379 379,377 379,376 380,375 380,374 381,373 381,372 383,370 383,368 385,366 385,365 387,363 387,362 388,361 388,360 389,359 389,358 390,357 390,356 392,354 392,353 393,352 393,351 394,350 394,349 396,347 396,346 397,345 397,344 398,343 398,342 399,341 399,340 401,338 401,337 402,336 402,335 403,334 403,333 405,331 405,329 407,327 407,326 408,325 408,324 409,323 409,322 411,320 411,319 412,318 412,317 413,316 413,315 415,313 415,312 416,311 416,310 417,309 417,308 419,306 419,305 420,304 420,303 421,302 421,301 423,299 423,298 424,297 424,296 425,295 425,294 426,293 426,292 428,290 428,289 429,288 429,287 430,286 430,285 432,283 432,282 433,281 433,280 434,279 434,278 435,277 435,276 437,274 437,272 439,270 439,269 440,268 440,267 441,266 441,265 443,263 443,262 444,261 444,260 446,258 446,257 447,256 447,255 448,254 448,253 449,252 449,251 451,249 451,248 452,247 452,246 453,245 453,244 455,242 455,240 457,238 457,237 458,236 458,235 460,233 460,232 461,231 461,230 462,229 462,228 463,227 463,226 464,225 464,224 466,222 466,221 467,220 467,219 469,217 469,216 470,215 470,214 471,213 471,212 473,210 473,209 474,208 474,207 475,206 475,205 476,204 476,203 477,202 477,201 479,199 479,198 480,197 480,196 482,194 482,193 483,192 483,191 484,190 484,189 485,188 485,187 487,185 487,183 489,181 489,180 490,179 490,178 491,177 491,176 493,174 493,173 494,172 494,171 495,170 495,169 497,167 497,166 498,165 498,164 500,162 500,161 501,160 501,159 502,158 502,157 503,156 503,155 505,153 505,152 506,151 506,150 507,149 507,148 508,147 508,146 509,145 509,144 511,142 511,141 512,140 512,139 513,138 513,137 515,135 515,134 516,133 516,132 517,131 517,130 519,128 519,127 520,126 520,125 521,124 521,123 523,121 523,120 524,119 524,118 525,117 525,116 527,114 527,112 529,110 529,109 530,108 530,107 532,105 532,104 533,103 533,102 534,101 534,100 535,99 535,98 536,97 536,96 538,94 538,93 539,92 539,91 541,89 541,88 542,87 542,86 543,85 543,84 544,83 544,82 546,80 546,79 547,78 547,77 548,76 548,75 549,74 549,73 551,71 551,70 552,69 552,68 553,67 553,66 554,65 554,64 556,62 556,61 557,60 557,59 558,58 558,56 Z" fill="#01d408" stroke="none" /></svg>